# This file uses centimeters as units for non-parametric coordinates.

v -0.500000 -0.511500 -0.500000
v 0.500000 -0.511500 -0.500000
v -0.500000 -0.511500 0.500000
v 0.500000 -0.511500 0.500000
v -0.500000 0.488500 0.500000
v 0.500000 0.488500 0.500000
v -0.500000 0.488500 -0.500000
v 0.500000 0.488500 -0.500000
vt 0.251432 0.335807
vt 0.500441 0.334402
vt 0.498398 0.000034
vt 0.250649 0.000034
vt 1.000142 0.335079
vt 0.750047 0.334702
vt 0.750115 0.665167
vt 1.000019 0.666328
vt 0.252115 0.998185
vt 0.497341 0.998235
vt 0.497647 0.666014
vt 0.252891 0.664136
vt 0.000128 0.338551
vt -0.000516 0.663876
vn 0.000000 1.000000 -0.000000
vn 0.000000 1.000000 -0.000000
vn 0.000000 1.000000 -0.000000
vn 0.000000 1.000000 0.000000
vn 0.000000 0.000000 -1.000000
vn 0.000000 0.000000 -1.000000
vn 0.000000 0.000000 -1.000000
vn 0.000000 0.000000 -1.000000
vn 0.000000 -1.000000 -0.000000
vn 0.000000 -1.000000 -0.000000
vn 0.000000 -1.000000 -0.000000
vn 0.000000 -1.000000 -0.000000
vn 0.000000 0.000000 1.000000
vn 0.000000 0.000000 1.000000
vn 0.000000 0.000000 1.000000
vn 0.000000 0.000000 1.000000
vn -1.000000 0.000000 0.000000
vn -1.000000 0.000000 0.000000
vn -1.000000 0.000000 0.000000
vn -1.000000 0.000000 0.000000
vn 1.000000 0.000000 0.000000
vn 1.000000 0.000000 0.000000
vn 1.000000 0.000000 0.000000
vn 1.000000 0.000000 0.000000
s 1
f 1/1/1 3/4/2 2/2/3
f 2/2/3 3/4/2 4/3/4
s 2
f 3/5/5 5/8/6 4/6/7
f 4/6/7 5/8/6 6/7/8
s 3
f 5/9/9 7/12/10 6/10/11
f 6/10/11 7/12/10 8/11/12
s 4
f 7/12/13 1/1/14 8/11/15
f 8/11/15 1/1/14 2/2/16
s 5
f 2/2/17 4/6/18 8/11/19
f 8/11/19 4/6/18 6/7/20
s 6
f 7/12/21 5/14/22 1/1/23
f 1/1/23 5/14/22 3/13/24
